<svg width="600" height="600" viewBox="0 0 600 600" fill="none" xmlns="http://www.w3.org/2000/svg">
<circle cx="300" cy="300" r="300" fill="#D9D9D9"/>
<path d="M300 108C273.5 108 252 129.5 252 156V320.5C252 337.8 244.9 352.4 236.7 363C226.2 376.6 220 393.5 220 412C220 456.2 255.8 492 300 492C344.2 492 380 456.2 380 412C380 393.5 373.8 376.6 363.3 363.1C355.1 352.5 348 337.9 348 320.6V156C348 129.5 326.5 108 300 108ZM188 156C188 94.2 238.1 44 300 44C361.9 44 412 94.1 412 156V320.5C412 320.6 412.1 320.8 412.2 321.1C412.4 321.7 413 322.7 413.9 323.9C432.8 348.3 444 378.9 444 412C444 491.5 379.5 556 300 556C220.5 556 156 491.5 156 412C156 378.8 167.2 348.2 186.1 323.9C187 322.7 187.6 321.7 187.8 321.1C187.9 320.8 188 320.6 188 320.5V156ZM348 412C348 438.5 326.5 460 300 460C273.5 460 252 438.5 252 412C252 391.1 265.4 373.3 284 366.7V188C284 179.2 291.2 172 300 172C308.8 172 316 179.2 316 188V366.7C334.6 373.3 348 391.1 348 412Z" fill="black"/>
</svg>
