<svg width="600" height="600" viewBox="0 0 600 600" fill="none" xmlns="http://www.w3.org/2000/svg">
<circle cx="300" cy="300" r="300" fill="#21C7C7"/>
<path d="M425 150H175C163.953 150.012 153.362 154.405 145.55 162.217C137.739 170.028 133.345 180.62 133.333 191.667V408.333C133.345 419.38 137.739 429.972 145.55 437.783C153.362 445.595 163.953 449.988 175 450H425C436.047 449.988 446.639 445.595 454.45 437.783C462.262 429.972 466.655 419.38 466.667 408.333V191.667C466.655 180.62 462.262 170.028 454.45 162.217C446.639 154.405 436.047 150.012 425 150ZM450 408.333C449.993 414.962 447.357 421.316 442.67 426.003C437.983 430.69 431.628 433.326 425 433.333H175C168.372 433.326 162.017 430.69 157.33 426.003C152.644 421.316 150.007 414.962 150 408.333V191.667C150.007 185.038 152.644 178.684 157.33 173.997C162.017 169.31 168.372 166.674 175 166.667H425C431.628 166.674 437.983 169.31 442.67 173.997C447.357 178.684 449.993 185.038 450 191.667V408.333Z" fill="white"/>
<path d="M425 183.333H175C173.905 183.333 172.822 183.548 171.81 183.966C170.799 184.385 169.88 184.999 169.106 185.773C168.332 186.547 167.718 187.466 167.3 188.477C166.881 189.488 166.666 190.572 166.667 191.667V408.333C166.666 409.428 166.881 410.512 167.3 411.523C167.718 412.535 168.332 413.454 169.106 414.228C169.88 415.001 170.799 415.615 171.81 416.034C172.822 416.452 173.905 416.667 175 416.667H425C426.095 416.667 427.178 416.452 428.19 416.034C429.201 415.615 430.12 415.001 430.894 414.228C431.668 413.454 432.282 412.535 432.7 411.523C433.119 410.512 433.334 409.428 433.333 408.333V191.667C433.334 190.572 433.119 189.488 432.7 188.477C432.282 187.466 431.668 186.547 430.894 185.773C430.12 184.999 429.201 184.385 428.19 183.966C427.178 183.548 426.095 183.333 425 183.333ZM416.667 400H183.333V200H416.667V400Z" fill="white"/>
<path d="M266.667 366.667C275.402 366.691 283.924 363.961 291.019 358.865C298.115 353.769 303.424 346.567 306.192 338.281C308.96 329.996 309.047 321.048 306.439 312.711C303.831 304.373 298.662 297.07 291.667 291.838V258.333C291.667 251.703 289.033 245.344 284.344 240.656C279.656 235.967 273.297 233.333 266.667 233.333C260.036 233.333 253.677 235.967 248.989 240.656C244.301 245.344 241.667 251.703 241.667 258.333V291.838C234.671 297.07 229.502 304.373 226.894 312.711C224.287 321.048 224.373 329.996 227.141 338.281C229.91 346.567 235.219 353.769 242.314 358.865C249.41 363.961 257.931 366.691 266.667 366.667ZM254.199 303.491C255.458 302.757 256.502 301.705 257.227 300.442C257.952 299.178 258.334 297.746 258.333 296.289V258.333C258.333 256.123 259.211 254.004 260.774 252.441C262.337 250.878 264.457 250 266.667 250C268.877 250 270.996 250.878 272.559 252.441C274.122 254.004 275 256.123 275 258.333V296.289C275 297.746 275.381 299.178 276.106 300.442C276.832 301.705 277.876 302.757 279.134 303.491C282.938 305.648 286.103 308.775 288.304 312.554C290.506 316.332 291.666 320.627 291.667 325C291.667 331.631 289.033 337.989 284.344 342.678C279.656 347.366 273.297 350 266.667 350C260.036 350 253.677 347.366 248.989 342.678C244.301 337.989 241.667 331.631 241.667 325C241.667 320.627 242.827 316.332 245.029 312.554C247.231 308.775 250.395 305.648 254.199 303.491Z" fill="white"/>
<path d="M333.333 300H366.667C368.877 300 370.996 299.122 372.559 297.559C374.122 295.997 375 293.877 375 291.667C375 289.457 374.122 287.337 372.559 285.774C370.996 284.211 368.877 283.333 366.667 283.333H333.333C331.123 283.333 329.004 284.211 327.441 285.774C325.878 287.337 325 289.457 325 291.667C325 293.877 325.878 295.997 327.441 297.559C329.004 299.122 331.123 300 333.333 300Z" fill="white"/>
<path d="M366.667 316.667H350C347.79 316.667 345.67 317.544 344.107 319.107C342.545 320.67 341.667 322.79 341.667 325C341.667 327.21 342.545 329.33 344.107 330.892C345.67 332.455 347.79 333.333 350 333.333H366.667C368.877 333.333 370.996 332.455 372.559 330.892C374.122 329.33 375 327.21 375 325C375 322.79 374.122 320.67 372.559 319.107C370.996 317.544 368.877 316.667 366.667 316.667Z" fill="white"/>
<path d="M333.333 266.667H366.667C368.877 266.667 370.996 265.789 372.559 264.226C374.122 262.663 375 260.543 375 258.333C375 256.123 374.122 254.004 372.559 252.441C370.996 250.878 368.877 250 366.667 250H333.333C331.123 250 329.004 250.878 327.441 252.441C325.878 254.004 325 256.123 325 258.333C325 260.543 325.878 262.663 327.441 264.226C329.004 265.789 331.123 266.667 333.333 266.667Z" fill="white"/>
</svg>
