<svg width="600" height="600" viewBox="0 0 600 600" fill="none" xmlns="http://www.w3.org/2000/svg">
<circle cx="300" cy="300" r="300" fill="#FC70CC"/>
<path d="M425 210.333C436.047 210.321 446.637 205.927 454.449 198.115C462.26 190.304 466.654 179.714 466.667 168.667C466.667 167.572 466.452 166.488 466.034 165.477C465.615 164.466 465.001 163.547 464.227 162.773C463.453 161.999 462.534 161.385 461.523 160.966C460.512 160.548 459.428 160.333 458.333 160.333H141.667C140.572 160.333 139.488 160.548 138.477 160.966C137.465 161.385 136.547 161.999 135.773 162.773C134.999 163.547 134.385 164.466 133.966 165.477C133.548 166.488 133.333 167.572 133.333 168.667C133.346 179.714 137.74 190.304 145.551 198.115C153.363 205.927 163.953 210.321 175 210.333H266.667V230.863C233.561 238.441 204.002 257.017 182.813 283.558C161.625 310.099 150.058 343.039 150 377V402C149.999 403.095 150.214 404.179 150.633 405.19C151.052 406.201 151.665 407.12 152.439 407.894C153.213 408.668 154.132 409.282 155.144 409.701C156.155 410.119 157.239 410.334 158.333 410.333H188.247C195.413 434.408 210.162 455.524 230.298 470.54C250.435 485.555 274.882 493.667 300 493.667C325.118 493.667 349.565 485.555 369.702 470.54C389.838 455.524 404.587 434.408 411.753 410.333H441.667C442.761 410.334 443.845 410.119 444.856 409.701C445.868 409.282 446.787 408.668 447.561 407.894C448.335 407.12 448.948 406.201 449.367 405.19C449.786 404.179 450.001 403.095 450 402V377C449.942 343.039 438.375 310.099 417.187 283.558C395.998 257.017 366.439 238.441 333.333 230.863V210.333H425ZM151.424 177H448.576C446.846 181.871 443.651 186.087 439.43 189.071C435.21 192.055 430.169 193.66 425 193.667H175C169.831 193.66 164.79 192.055 160.57 189.071C156.349 186.087 153.154 181.871 151.424 177ZM300 477C280.222 477 260.888 471.135 244.443 460.147C227.998 449.159 215.181 433.541 207.612 415.268C200.043 396.996 198.063 376.889 201.921 357.491C205.78 338.093 215.304 320.275 229.289 306.289C243.275 292.304 261.093 282.78 280.491 278.922C299.889 275.063 319.996 277.043 338.268 284.612C356.541 292.181 372.159 304.998 383.147 321.443C394.135 337.888 400 357.222 400 377C399.971 403.513 389.426 428.932 370.679 447.679C351.931 466.426 326.513 476.971 300 477ZM433.333 377V393.667H415.336C417.871 377.05 416.785 360.082 412.154 343.924C407.522 327.766 399.453 312.799 388.5 300.049C377.548 287.299 363.969 277.066 348.694 270.05C333.419 263.035 316.809 259.403 300 259.403C283.191 259.403 266.581 263.035 251.306 270.05C236.031 277.066 222.452 287.299 211.5 300.049C200.547 312.799 192.478 327.766 187.846 343.924C183.215 360.082 182.129 377.05 184.664 393.667H166.667V377C166.667 341.638 180.714 307.724 205.719 282.719C230.724 257.714 264.638 243.667 300 243.667C335.362 243.667 369.276 257.714 394.281 282.719C419.286 307.724 433.333 341.638 433.333 377ZM316.667 227.984C305.594 226.672 294.406 226.672 283.333 227.984V210.333H316.667V227.984Z" fill="white"/>
<path d="M300 310.333C286.815 310.333 273.925 314.243 262.962 321.569C251.999 328.894 243.454 339.306 238.408 351.488C233.362 363.67 232.042 377.074 234.614 390.006C237.187 402.938 243.536 414.817 252.859 424.141C262.183 433.464 274.062 439.814 286.994 442.386C299.926 444.958 313.33 443.638 325.512 438.592C337.694 433.546 348.106 425.001 355.431 414.038C362.757 403.075 366.667 390.186 366.667 377C366.646 359.325 359.616 342.38 347.118 329.882C334.62 317.384 317.675 310.354 300 310.333ZM300 427C290.111 427 280.444 424.068 272.221 418.574C263.999 413.08 257.59 405.271 253.806 396.134C250.022 386.998 249.031 376.945 250.961 367.246C252.89 357.547 257.652 348.637 264.645 341.645C271.637 334.652 280.546 329.89 290.245 327.961C299.944 326.032 309.998 327.022 319.134 330.806C328.27 334.591 336.079 340.999 341.573 349.222C347.068 357.444 350 367.111 350 377C349.986 390.257 344.713 402.966 335.339 412.34C325.966 421.713 313.256 426.986 300 427Z" fill="white"/>
<path d="M300 343.667C293.407 343.667 286.963 345.622 281.481 349.285C275.999 352.947 271.727 358.153 269.204 364.244C266.681 370.335 266.021 377.037 267.307 383.503C268.593 389.969 271.768 395.909 276.43 400.571C281.092 405.232 287.031 408.407 293.497 409.693C299.963 410.979 306.665 410.319 312.756 407.796C318.847 405.273 324.053 401.001 327.716 395.519C331.378 390.038 333.333 383.593 333.333 377C333.325 368.162 329.81 359.689 323.561 353.44C317.311 347.19 308.838 343.676 300 343.667ZM300 393.667C296.704 393.667 293.481 392.69 290.74 390.858C288 389.027 285.863 386.424 284.602 383.378C283.341 380.333 283.01 376.982 283.654 373.749C284.297 370.516 285.884 367.546 288.215 365.215C290.546 362.884 293.515 361.297 296.748 360.654C299.981 360.011 303.333 360.341 306.378 361.602C309.423 362.864 312.026 365 313.858 367.741C315.689 370.482 316.667 373.704 316.667 377C316.661 381.419 314.903 385.655 311.779 388.779C308.654 391.903 304.418 393.661 300 393.667Z" fill="white"/>
</svg>
