<svg width="600" height="600" viewBox="0 0 600 600" fill="none" xmlns="http://www.w3.org/2000/svg">
<circle cx="300" cy="300" r="300" fill="#FF753A"/>
<path d="M337 124.964C337 117.23 333.484 109.964 327.391 105.276C321.297 100.589 313.406 98.8702 305.906 100.745L165.359 135.901C148.719 140.042 137 155.042 137 172.23V449.964H112C98.1719 449.964 87 461.136 87 474.964C87 488.792 98.1719 499.964 112 499.964H162H312H337V474.964V124.964ZM287 299.964C287 313.792 278.641 324.964 268.25 324.964C257.859 324.964 249.5 313.792 249.5 299.964C249.5 286.136 257.859 274.964 268.25 274.964C278.641 274.964 287 286.136 287 299.964ZM362 199.964H437V474.964C437 488.792 448.172 499.964 462 499.964H512C525.828 499.964 537 488.792 537 474.964C537 461.136 525.828 449.964 512 449.964H487V199.964C487 172.386 464.578 149.964 437 149.964H362V199.964Z" fill="black"/>
</svg>
