<svg width="600" height="600" viewBox="0 0 600 600" fill="none" xmlns="http://www.w3.org/2000/svg">
<circle cx="300" cy="300" r="292.5" fill="#FF7B42" stroke="white" stroke-width="15"/>
<path d="M320.399 157.064C320.399 150.753 317.531 144.825 312.558 141C307.586 137.175 301.147 135.772 295.028 137.302L180.345 165.989C166.767 169.368 157.205 181.607 157.205 195.632V422.255H136.806C125.522 422.255 116.406 431.371 116.406 442.655C116.406 453.938 125.522 463.054 136.806 463.054H177.604H300H320.399V442.655V157.064ZM279.601 299.859C279.601 311.143 272.78 320.259 264.301 320.259C255.823 320.259 249.002 311.143 249.002 299.859C249.002 288.576 255.823 279.46 264.301 279.46C272.78 279.46 279.601 288.576 279.601 299.859ZM340.799 218.262H401.997V442.655C401.997 453.938 411.112 463.054 422.396 463.054H463.194C474.478 463.054 483.594 453.938 483.594 442.655C483.594 431.371 474.478 422.255 463.194 422.255H442.795V218.262C442.795 195.759 424.5 177.464 401.997 177.464H340.799V218.262Z" fill="white"/>
</svg>
