<svg width="600" height="600" viewBox="0 0 600 600" fill="none" xmlns="http://www.w3.org/2000/svg">
<circle cx="300" cy="300" r="300" fill="#7CE06B"/>
<path d="M437.5 208L330.75 134.625C321.73 128.333 310.997 124.96 300 124.96C289.003 124.96 278.27 128.333 269.25 134.625L162.5 208C154.809 213.165 148.507 220.142 144.147 228.316C139.787 236.49 137.505 245.611 137.5 254.875V418.5C137.366 433.309 143.105 447.569 153.459 458.157C163.814 468.746 177.941 474.802 192.75 475H407.25C422.059 474.802 436.186 468.746 446.541 458.157C456.895 447.569 462.634 433.309 462.5 418.5V254.875C462.495 245.611 460.212 236.49 455.853 228.316C451.493 220.142 445.191 213.165 437.5 208ZM437.5 418.5C437.634 426.679 434.53 434.581 428.864 440.481C423.197 446.382 415.428 449.803 407.25 450H192.75C184.572 449.803 176.803 446.382 171.136 440.481C165.47 434.581 162.366 426.679 162.5 418.5V254.875C162.471 249.722 163.696 244.64 166.069 240.066C168.443 235.493 171.894 231.566 176.125 228.625L283.375 155.25C288.248 151.84 294.052 150.011 300 150.011C305.948 150.011 311.752 151.84 316.625 155.25L423.875 228.625C428.106 231.566 431.557 235.493 433.931 240.066C436.304 244.64 437.529 249.722 437.5 254.875V418.5Z" fill="white"/>
<path d="M337.5 300H284.625L310.75 256.375C311.779 254.96 312.499 253.346 312.865 251.635C313.23 249.925 313.233 248.157 312.872 246.445C312.511 244.734 311.796 243.117 310.771 241.7C309.746 240.282 308.435 239.096 306.923 238.217C305.411 237.338 303.732 236.786 301.993 236.596C300.254 236.407 298.495 236.585 296.829 237.118C295.163 237.652 293.628 238.528 292.323 239.692C291.017 240.856 289.97 242.281 289.25 243.875L251.75 306.375C250.687 308.266 250.134 310.402 250.146 312.571C250.158 314.741 250.735 316.87 251.82 318.749C252.905 320.629 254.46 322.193 256.332 323.289C258.205 324.385 260.33 324.975 262.5 325H315.375L289.25 368.625C287.56 371.476 287.071 374.882 287.891 378.093C288.712 381.305 290.774 384.059 293.625 385.75C295.554 386.895 297.756 387.499 300 387.5C302.169 387.5 304.301 386.935 306.186 385.861C308.071 384.787 309.644 383.241 310.75 381.375L348.25 318.875C349.375 316.977 349.978 314.815 349.997 312.609C350.017 310.403 349.452 308.231 348.36 306.314C347.268 304.397 345.688 302.803 343.781 301.694C341.873 300.585 339.706 300 337.5 300Z" fill="white"/>
</svg>
