<svg width="600" height="600" viewBox="0 0 600 600" fill="none" xmlns="http://www.w3.org/2000/svg">
<circle cx="300" cy="300" r="300" fill="#AC6EFC"/>
<path d="M432.071 231.571L414.286 236V178.857L432.071 183.286C435.155 184.065 437.891 185.851 439.845 188.361C441.799 190.871 442.859 193.962 442.857 197.143V217.714C442.859 220.895 441.799 223.985 439.845 226.495C437.891 229.006 435.155 230.792 432.071 231.571Z" fill="white"/>
<path d="M432.071 417.286L414.286 421.714V364.571L432.071 369C435.155 369.779 437.891 371.565 439.845 374.076C441.799 376.586 442.859 379.676 442.857 382.857V403.428C442.859 406.609 441.799 409.7 439.845 412.21C437.891 414.72 435.155 416.506 432.071 417.286Z" fill="white"/>
<path d="M185.714 143.143H221.429V457.429H185.714C181.925 457.429 178.292 455.924 175.613 453.245C172.934 450.566 171.429 446.932 171.429 443.143V157.429C171.429 153.64 172.934 150.006 175.613 147.327C178.292 144.648 181.925 143.143 185.714 143.143Z" fill="white"/>
<path d="M450 217.714V197.143C450 192.367 448.405 187.727 445.467 183.962C442.53 180.196 438.418 177.519 433.786 176.357L421.429 173.286V157.429C421.429 151.745 419.171 146.295 415.152 142.276C411.134 138.258 405.683 136 400 136H185.714C180.031 136 174.581 138.258 170.562 142.276C166.543 146.295 164.286 151.745 164.286 157.429V171.714H157.143C155.248 171.714 153.432 172.467 152.092 173.806C150.753 175.146 150 176.963 150 178.857C150 180.752 150.753 182.568 152.092 183.908C153.432 185.247 155.248 186 157.143 186H164.286V200.286H157.143C155.248 200.286 153.432 201.038 152.092 202.378C150.753 203.717 150 205.534 150 207.429C150 209.323 150.753 211.14 152.092 212.479C153.432 213.819 155.248 214.571 157.143 214.571H164.286V243.143H157.143C155.248 243.143 153.432 243.895 152.092 245.235C150.753 246.574 150 248.391 150 250.286C150 252.18 150.753 253.997 152.092 255.336C153.432 256.676 155.248 257.429 157.143 257.429H164.286V271.714H157.143C155.248 271.714 153.432 272.467 152.092 273.806C150.753 275.146 150 276.963 150 278.857C150 280.752 150.753 282.568 152.092 283.908C153.432 285.247 155.248 286 157.143 286H164.286V314.571H157.143C155.248 314.571 153.432 315.324 152.092 316.664C150.753 318.003 150 319.82 150 321.714C150 323.609 150.753 325.426 152.092 326.765C153.432 328.105 155.248 328.857 157.143 328.857H164.286V343.143H157.143C155.248 343.143 153.432 343.895 152.092 345.235C150.753 346.575 150 348.391 150 350.286C150 352.18 150.753 353.997 152.092 355.336C153.432 356.676 155.248 357.429 157.143 357.429H164.286V386H157.143C155.248 386 153.432 386.753 152.092 388.092C150.753 389.432 150 391.248 150 393.143C150 395.037 150.753 396.854 152.092 398.194C153.432 399.533 155.248 400.286 157.143 400.286H164.286V414.571H157.143C155.248 414.571 153.432 415.324 152.092 416.664C150.753 418.003 150 419.82 150 421.714C150 423.609 150.753 425.426 152.092 426.765C153.432 428.105 155.248 428.857 157.143 428.857H164.286V443.143C164.286 448.826 166.543 454.277 170.562 458.295C174.581 462.314 180.031 464.571 185.714 464.571H400C405.683 464.571 411.134 462.314 415.152 458.295C419.171 454.277 421.429 448.826 421.429 443.143V427.286L433.786 424.214C438.418 423.052 442.53 420.376 445.467 416.61C448.405 412.844 450 408.205 450 403.429V382.857C450 378.081 448.405 373.442 445.467 369.676C442.53 365.91 438.418 363.234 433.786 362.071L421.429 359V305.857C437.071 301.929 433.071 302.786 433.786 302.786C438.418 301.624 442.53 298.947 445.467 295.181C448.405 291.415 450 286.776 450 282V261.429C450 256.652 448.405 252.013 445.467 248.247C442.53 244.482 438.418 241.805 433.786 240.643L429.429 239.571L433.786 238.5C438.418 237.338 442.53 234.661 445.467 230.895C448.405 227.13 450 222.49 450 217.714ZM407.143 443.143C407.143 445.037 406.39 446.854 405.051 448.194C403.711 449.533 401.894 450.286 400 450.286H185.714C183.82 450.286 182.003 449.533 180.664 448.194C179.324 446.854 178.571 445.037 178.571 443.143V428.857H185.714C187.609 428.857 189.426 428.105 190.765 426.765C192.105 425.426 192.857 423.609 192.857 421.714C192.857 419.82 192.105 418.003 190.765 416.664C189.426 415.324 187.609 414.571 185.714 414.571H178.571V400.286H185.714C187.609 400.286 189.426 399.533 190.765 398.194C192.105 396.854 192.857 395.037 192.857 393.143C192.857 391.248 192.105 389.432 190.765 388.092C189.426 386.753 187.609 386 185.714 386H178.571V357.429H185.714C187.609 357.429 189.426 356.676 190.765 355.336C192.105 353.997 192.857 352.18 192.857 350.286C192.857 348.391 192.105 346.575 190.765 345.235C189.426 343.895 187.609 343.143 185.714 343.143H178.571V328.857H185.714C187.609 328.857 189.426 328.105 190.765 326.765C192.105 325.426 192.857 323.609 192.857 321.714C192.857 319.82 192.105 318.003 190.765 316.664C189.426 315.324 187.609 314.571 185.714 314.571H178.571V286H185.714C187.609 286 189.426 285.247 190.765 283.908C192.105 282.568 192.857 280.752 192.857 278.857C192.857 276.963 192.105 275.146 190.765 273.806C189.426 272.467 187.609 271.714 185.714 271.714H178.571V257.429H185.714C187.609 257.429 189.426 256.676 190.765 255.336C192.105 253.997 192.857 252.18 192.857 250.286C192.857 248.391 192.105 246.574 190.765 245.235C189.426 243.895 187.609 243.143 185.714 243.143H178.571V214.571H185.714C187.609 214.571 189.426 213.819 190.765 212.479C192.105 211.14 192.857 209.323 192.857 207.429C192.857 205.534 192.105 203.717 190.765 202.378C189.426 201.038 187.609 200.286 185.714 200.286H178.571V186H185.714C187.609 186 189.426 185.247 190.765 183.908C192.105 182.568 192.857 180.752 192.857 178.857C192.857 176.963 192.105 175.146 190.765 173.806C189.426 172.467 187.609 171.714 185.714 171.714H178.571V157.429C178.571 155.534 179.324 153.717 180.664 152.378C182.003 151.038 183.82 150.286 185.714 150.286H400C401.894 150.286 403.711 151.038 405.051 152.378C406.39 153.717 407.143 155.534 407.143 157.429V443.143ZM430.286 375.929C431.871 376.32 433.274 377.242 434.261 378.541C435.249 379.841 435.762 381.44 435.714 383.071V403.643C435.762 405.275 435.249 406.873 434.261 408.173C433.274 409.473 431.871 410.395 430.286 410.786L421.429 412.571V373.714L430.286 375.929ZM435.714 261.643V282.214C435.762 283.846 435.249 285.445 434.261 286.744C433.274 288.044 431.871 288.966 430.286 289.357L421.429 291.143V252.286L430.286 254.5C431.834 254.883 433.21 255.773 434.194 257.029C435.178 258.284 435.713 259.833 435.714 261.429V261.643ZM421.429 227.071V188L430.286 190.214C431.871 190.605 433.274 191.527 434.261 192.827C435.249 194.127 435.762 195.725 435.714 197.357V217.929C435.762 219.56 435.249 221.159 434.261 222.459C433.274 223.758 431.871 224.68 430.286 225.071L421.429 227.071Z" fill="white"/>
<path d="M385.714 278.857V250.286L370.429 242.643C367.563 241.136 365.221 238.794 363.714 235.928C360.429 230.214 361.286 228.357 362.357 209.857L337.643 195.571L323.357 205.071C320.652 206.74 317.536 207.624 314.357 207.624C311.179 207.624 308.062 206.74 305.357 205.071L291.071 195.571L266.357 209.857L267.357 226.857C267.454 230.096 266.557 233.287 264.786 236C261.5 241.714 259.357 242 242.857 250.286V278.857L258.143 286.5C261.009 288.007 263.35 290.348 264.857 293.214C268.143 298.928 267.286 300.786 266.214 319.286L290.929 333.571C307.143 323 307.571 321.714 314.786 321.714C317.801 321.707 320.754 322.575 323.286 324.214L337.571 333.714L362.286 319.428L361.286 302.428C361.138 299.149 362.011 295.905 363.786 293.143C367.071 287.357 369.214 287.071 385.714 278.857Z" fill="white"/>
<path d="M314.286 300.286C334.01 300.286 350 284.296 350 264.572C350 244.847 334.01 228.857 314.286 228.857C294.561 228.857 278.571 244.847 278.571 264.572C278.571 284.296 294.561 300.286 314.286 300.286Z" fill="#AC6EFC"/>
<path d="M342.857 400.286H257.143C255.248 400.286 253.432 399.533 252.092 398.194C250.753 396.854 250 395.037 250 393.143C250 391.248 250.753 389.432 252.092 388.092C253.432 386.753 255.248 386 257.143 386H342.857C344.752 386 346.568 386.753 347.908 388.092C349.247 389.432 350 391.248 350 393.143C350 395.037 349.247 396.854 347.908 398.194C346.568 399.533 344.752 400.286 342.857 400.286Z" fill="white"/>
<path d="M300 428.857H257.143C255.248 428.857 253.432 428.104 252.092 426.765C250.753 425.425 250 423.609 250 421.714C250 419.82 250.753 418.003 252.092 416.663C253.432 415.324 255.248 414.571 257.143 414.571H300C301.894 414.571 303.711 415.324 305.051 416.663C306.39 418.003 307.143 419.82 307.143 421.714C307.143 423.609 306.39 425.425 305.051 426.765C303.711 428.104 301.894 428.857 300 428.857Z" fill="white"/>
</svg>
