<svg width="600" height="600" viewBox="0 0 600 600" fill="none" xmlns="http://www.w3.org/2000/svg">
<circle cx="300" cy="300" r="300" fill="#FF6363"/>
<path d="M372.164 295.146C382.008 281.064 387.75 263.906 387.75 245.312C387.75 196.982 348.58 157.812 300.25 157.812C251.92 157.812 212.75 196.982 212.75 245.312C212.75 263.906 218.492 281.064 228.336 295.146C230.865 298.77 233.873 302.871 237.086 307.246C245.904 319.346 256.432 333.838 264.293 348.125C271.402 361.113 275.025 374.648 276.803 387.432H243.512C242.008 379.229 239.479 371.23 235.445 363.848C228.678 351.543 220.27 339.99 211.861 328.438C208.307 323.584 204.752 318.73 201.334 313.809C187.867 294.463 179.938 270.811 179.938 245.312C179.938 178.867 233.805 125 300.25 125C366.695 125 420.562 178.867 420.562 245.312C420.562 270.811 412.633 294.463 399.098 313.877C395.68 318.799 392.125 323.652 388.57 328.506C380.162 339.99 371.754 351.543 364.986 363.916C360.953 371.299 358.424 379.297 356.92 387.5H323.766C325.543 374.717 329.166 361.113 336.275 348.193C344.137 333.906 354.664 319.414 363.482 307.314C366.695 302.939 369.635 298.838 372.164 295.215V295.146ZM300.25 212.5C282.135 212.5 267.438 227.197 267.438 245.312C267.438 251.328 262.516 256.25 256.5 256.25C250.484 256.25 245.562 251.328 245.562 245.312C245.562 215.098 270.035 190.625 300.25 190.625C306.266 190.625 311.188 195.547 311.188 201.562C311.188 207.578 306.266 212.5 300.25 212.5ZM300.25 475C270.035 475 245.562 450.527 245.562 420.312V409.375H354.938V420.312C354.938 450.527 330.465 475 300.25 475Z" fill="white"/>
</svg>
