<svg width="600" height="600" viewBox="0 0 600 600" fill="none" xmlns="http://www.w3.org/2000/svg">
<circle cx="300" cy="300" r="292.5" fill="#FF7B42" stroke="white" stroke-width="15"/>
<g clip-path="url(#clip0_4_86)">
<path d="M377.143 132.571C377.143 122.342 373.079 112.531 365.846 105.297C358.612 98.0638 348.801 94 338.571 94C328.342 94 318.531 98.0638 311.297 105.297C304.064 112.531 300 122.342 300 132.571C300 142.801 304.064 152.612 311.297 159.846C318.531 167.079 328.342 171.143 338.571 171.143C348.801 171.143 358.612 167.079 365.846 159.846C373.079 152.612 377.143 142.801 377.143 132.571ZM221.009 235.027C228.964 227.071 239.812 222.571 251.143 222.571C252.67 222.571 254.196 222.652 255.643 222.812L230.571 298.107C223.098 320.607 231.937 345.357 252.107 357.973L321.375 401.286L300.964 472.643C297.027 486.304 304.982 500.527 318.643 504.464C332.304 508.402 346.527 500.446 350.464 486.786L373.527 406.107C378.268 389.554 371.437 371.875 356.893 362.795L311.25 334.268L336.08 268.054L340.179 277.937C352.232 306.705 380.277 325.429 411.455 325.429H428.571C442.795 325.429 454.286 313.937 454.286 299.714C454.286 285.491 442.795 274 428.571 274H411.455C401.089 274 391.688 267.732 387.75 258.17L382.687 246.116C370.955 217.911 347.25 196.375 318 187.375L278.866 175.321C269.946 172.589 260.625 171.143 251.223 171.143C226.312 171.143 202.366 181.027 184.768 198.705L166.125 217.268C156.08 227.312 156.08 243.625 166.125 253.67C176.17 263.714 192.482 263.714 202.527 253.67L221.089 235.107L221.009 235.027ZM193.286 376.857H145.714C131.491 376.857 120 388.348 120 402.571C120 416.795 131.491 428.286 145.714 428.286H201.643C216.911 428.286 230.732 419.286 236.92 405.384L246.161 384.571L238.527 379.75C224.464 370.991 214.018 358.214 208.071 343.67L193.286 376.857Z" fill="white"/>
</g>
<defs>
<clipPath id="clip0_4_86">
<rect width="360" height="411.429" fill="white" transform="translate(120 94)"/>
</clipPath>
</defs>
</svg>
