<svg width="600" height="600" viewBox="0 0 600 600" fill="none" xmlns="http://www.w3.org/2000/svg">
<circle cx="300" cy="300" r="300" fill="#FF753A"/>
<g clip-path="url(#clip0_4_86)">
<path d="M396 92C396 79.2696 390.943 67.0606 381.941 58.0589C372.939 49.0571 360.73 44 348 44C335.27 44 323.061 49.0571 314.059 58.0589C305.057 67.0606 300 79.2696 300 92C300 104.73 305.057 116.939 314.059 125.941C323.061 134.943 335.27 140 348 140C360.73 140 372.939 134.943 381.941 125.941C390.943 116.939 396 104.73 396 92ZM201.7 219.5C211.6 209.6 225.1 204 239.2 204C241.1 204 243 204.1 244.8 204.3L213.6 298C204.3 326 215.3 356.8 240.4 372.5L326.6 426.4L301.2 515.2C296.3 532.2 306.2 549.9 323.2 554.8C340.2 559.7 357.9 549.8 362.8 532.8L391.5 432.4C397.4 411.8 388.9 389.8 370.8 378.5L314 343L344.9 260.6L350 272.9C365 308.7 399.9 332 438.7 332H460C477.7 332 492 317.7 492 300C492 282.3 477.7 268 460 268H438.7C425.8 268 414.1 260.2 409.2 248.3L402.9 233.3C388.3 198.2 358.8 171.4 322.4 160.2L273.7 145.2C262.6 141.8 251 140 239.3 140C208.3 140 178.5 152.3 156.6 174.3L133.4 197.4C120.9 209.9 120.9 230.2 133.4 242.7C145.9 255.2 166.2 255.2 178.7 242.7L201.8 219.6L201.7 219.5ZM167.2 396H108C90.3 396 76 410.3 76 428C76 445.7 90.3 460 108 460H177.6C196.6 460 213.8 448.8 221.5 431.5L233 405.6L223.5 399.6C206 388.7 193 372.8 185.6 354.7L167.2 396Z" fill="black"/>
</g>
<defs>
<clipPath id="clip0_4_86">
<rect width="448" height="512" fill="white" transform="translate(76 44)"/>
</clipPath>
</defs>
</svg>
