<svg width="600" height="600" viewBox="0 0 600 600" fill="none" xmlns="http://www.w3.org/2000/svg">
<circle cx="300" cy="300" r="292.5" fill="#FF7B42" stroke="white" stroke-width="15"/>
<g clip-path="url(#clip0_4_89)">
<path d="M225 100C211.172 100 200 111.172 200 125V200H250V125C250 111.172 238.828 100 225 100ZM375 100C361.172 100 350 111.172 350 125V200H400V125C400 111.172 388.828 100 375 100ZM175 225C161.172 225 150 236.172 150 250C150 263.828 161.172 275 175 275V300C175 360.469 217.969 410.937 275 422.5V475C275 488.828 286.172 500 300 500C313.828 500 325 488.828 325 475V422.5C382.031 410.937 425 360.469 425 300V275C438.828 275 450 263.828 450 250C450 236.172 438.828 225 425 225H175Z" fill="white"/>
</g>
<defs>
<clipPath id="clip0_4_89">
<rect width="300" height="400" fill="white" transform="translate(150 100)"/>
</clipPath>
</defs>
</svg>
