<svg width="600" height="600" viewBox="0 0 600 600" fill="none" xmlns="http://www.w3.org/2000/svg">
<circle cx="300" cy="300" r="292.5" fill="#FF7B42" stroke="white" stroke-width="15"/>
<path d="M397.948 134.843C402.556 124.142 399.119 111.645 389.668 104.772C380.217 97.8981 367.329 98.523 358.503 106.178L158.546 281.14C150.735 288.013 147.923 299.027 151.595 308.712C155.266 318.397 164.639 324.958 175.027 324.958H262.118L202.052 465.084C197.444 475.785 200.881 488.283 210.332 495.156C219.783 502.03 232.671 501.405 241.497 493.75L441.454 318.788C449.265 311.914 452.077 300.901 448.405 291.216C444.734 281.53 435.439 275.047 424.973 275.047H337.882L397.948 134.843Z" fill="white"/>
</svg>
