<svg width="600" height="600" viewBox="0 0 600 600" fill="none" xmlns="http://www.w3.org/2000/svg">
<circle cx="300" cy="300" r="300" fill="#FF753A"/>
<path d="M425.441 88.609C431.341 74.909 426.941 58.909 414.841 50.109C402.741 41.309 386.241 42.109 374.941 51.909L118.941 275.909C108.941 284.709 105.341 298.809 110.041 311.209C114.741 323.609 126.741 332.009 140.041 332.009H251.541L174.641 511.409C168.741 525.109 173.141 541.109 185.241 549.909C197.341 558.709 213.841 557.909 225.141 548.109L481.141 324.109C491.141 315.309 494.741 301.209 490.041 288.809C485.341 276.409 473.441 268.109 460.041 268.109H348.541L425.441 88.609Z" fill="black"/>
</svg>
