<svg width="600" height="600" viewBox="0 0 600 600" fill="none" xmlns="http://www.w3.org/2000/svg">
<circle cx="300" cy="300" r="292.5" fill="#FF7B42" stroke="white" stroke-width="15"/>
<path d="M300 150C279.297 150 262.5 166.797 262.5 187.5V316.016C262.5 329.531 256.953 340.937 250.547 349.219C242.344 359.844 237.5 373.047 237.5 387.5C237.5 422.031 265.469 450 300 450C334.531 450 362.5 422.031 362.5 387.5C362.5 373.047 357.656 359.844 349.453 349.297C343.047 341.016 337.5 329.609 337.5 316.094V187.5C337.5 166.797 320.703 150 300 150ZM212.5 187.5C212.5 139.219 251.641 100 300 100C348.359 100 387.5 139.141 387.5 187.5V316.016C387.5 316.094 387.578 316.25 387.656 316.484C387.813 316.953 388.281 317.734 388.984 318.672C403.75 337.734 412.5 361.641 412.5 387.5C412.5 449.609 362.109 500 300 500C237.891 500 187.5 449.609 187.5 387.5C187.5 361.562 196.25 337.656 211.016 318.672C211.719 317.734 212.187 316.953 212.344 316.484C212.422 316.25 212.5 316.094 212.5 316.016V187.5ZM337.5 387.5C337.5 408.203 320.703 425 300 425C279.297 425 262.5 408.203 262.5 387.5C262.5 371.172 272.969 357.266 287.5 352.109V212.5C287.5 205.625 293.125 200 300 200C306.875 200 312.5 205.625 312.5 212.5V352.109C327.031 357.266 337.5 371.172 337.5 387.5Z" fill="white"/>
</svg>
